<?xml version="1.0" standalone="no"?>
<!DOCTYPE svg PUBLIC "-//W3C//DTD SVG 20010904//EN"
 "http://www.w3.org/TR/2001/REC-SVG-20010904/DTD/svg10.dtd">
<svg version="1.0" xmlns="http://www.w3.org/2000/svg"
 width="340.000000pt" height="340.000000pt" viewBox="0 0 340.000000 340.000000"
 preserveAspectRatio="xMidYMid meet">
<metadata>
Created by potrace 1.11, written by Peter Selinger 2001-2013
</metadata>
<g transform="translate(0.000000,340.000000) scale(0.100000,-0.100000)"
fill="#000000" stroke="none">
<path d="M1505 2826 c-78 -36 -156 -114 -199 -198 -62 -122 -70 -227 -26 -334
13 -30 12 -33 -47 -101 -132 -154 -312 -467 -352 -613 -34 -123 -25 -236 29
-356 34 -77 86 -134 162 -181 67 -41 73 -64 18 -73 -98 -16 -178 -102 -188
-199 -7 -80 4 -116 55 -168 l45 -47 -4 -105 c-3 -67 -11 -123 -22 -151 -29
-75 -30 -80 -13 -80 9 0 19 9 22 20 7 23 35 27 35 6 0 -15 114 -31 178 -24
l33 3 2 102 c2 80 6 106 19 119 9 9 23 14 31 11 18 -7 37 -81 37 -144 0 -26 3
-58 6 -71 l6 -22 497 2 496 3 5 55 5 55 23 -50 c12 -27 28 -53 35 -57 16 -10
240 -10 235 0 -2 4 -24 50 -50 102 -27 53 -57 133 -69 179 l-21 83 30 32 c51
53 67 94 66 171 0 66 -3 75 -39 130 -48 71 -116 120 -192 135 l-54 12 31 34
c67 76 110 205 110 329 0 245 -142 542 -370 775 -80 81 -226 190 -256 190 -21
0 -24 14 -9 56 8 21 14 78 15 126 0 78 -3 92 -33 149 -27 54 -40 67 -86 91
-67 35 -127 37 -196 4z m5 -74 c0 -14 -23 -32 -42 -32 -21 0 -23 11 -6 28 13
13 48 16 48 4z m-90 -61 c0 -12 -40 -62 -67 -84 -25 -20 -30 -57 -11 -86 13
-22 -1 -107 -17 -103 -28 7 -28 84 1 174 19 60 94 139 94 99z m-20 -111 c0 -5
-9 -10 -21 -10 -11 0 -17 5 -14 10 3 6 13 10 21 10 8 0 14 -4 14 -10z m412
-535 c68 -50 73 -121 12 -157 -81 -47 -511 -97 -577 -67 -27 12 -67 76 -67
107 0 22 49 68 89 84 104 39 232 57 401 55 98 -2 119 -5 142 -22z m-722 -137
c-32 -62 -73 -156 -91 -208 -31 -89 -33 -103 -34 -230 0 -131 1 -136 30 -189
16 -29 58 -79 92 -110 36 -34 59 -62 54 -67 -5 -5 -11 -17 -13 -28 -3 -16 -11
-12 -64 26 -59 45 -116 118 -145 188 -9 24 -14 72 -13 150 0 129 11 167 100
343 42 84 132 237 139 237 2 0 -23 -51 -55 -112z m584 -459 c3 -34 6 -73 6
-85 0 -33 -34 -64 -70 -64 l-30 0 0 99 c0 108 0 107 61 110 25 1 26 -2 33 -60z
m-109 -49 c0 -75 -3 -95 -14 -95 -29 0 -55 53 -59 119 -4 68 1 76 53 73 18 -2
20 -9 20 -97z m-338 -376 c-4 -4 -24 1 -45 11 -20 10 -31 20 -24 22 6 3 12 12
12 21 0 12 9 8 32 -15 18 -18 29 -36 25 -39z m47 -420 c18 -7 22 -49 6 -59
-14 -9 -60 22 -60 39 0 21 27 30 54 20z m-234 -241 c0 -48 -13 -83 -25 -71 -6
6 14 118 22 118 1 0 3 -21 3 -47z"/>
</g>
</svg>
